<svg width="1404" height="1168" viewBox="0 0 1404 1168" fill="none" xmlns="http://www.w3.org/2000/svg">
<path d="M694.44 2.11999C698.493 0.973325 702.813 0.0933225 706.96 1.34666C804.92 26.9867 900.16 62.12 993.28 101.72C1002.21 105.707 1011.45 109.013 1020.08 113.667C1012.95 164.32 1005.27 214.907 998.827 265.64C1007.23 261.707 1015 256.613 1023.13 252.16C1065.31 228.227 1108.44 205.96 1152.4 185.467C1156.24 183.867 1160.65 180.613 1164.79 183.36C1238.29 220.107 1309.77 260.76 1380.53 302.507C1388.09 307.08 1395.81 311.373 1403.19 316.253C1380.29 332.893 1357.05 349.08 1334.39 366.053C1261.09 420.56 1190.21 478.32 1121.69 538.72C1117.65 542.92 1111.75 539.373 1106.97 538.707C986.08 510.893 864.227 487.347 741.72 467.867C729.453 466.227 717.293 463.64 704.947 462.707C709.413 467.04 714.587 470.52 719.653 474.093C803.4 535.16 885.853 598.013 966.253 663.427C968.707 665.453 971.107 667.547 973.533 669.627C964.093 679.613 953.48 688.4 943.813 698.16C865.293 772.947 786.68 847.667 708.2 922.52C706.44 924.067 704.653 925.587 702.867 927.12C696.307 922.067 690.787 915.867 684.84 910.16C548.64 778.973 411.16 648.987 268.36 524.947C270.747 519.173 273.547 513.587 276.467 508.067C313.893 434.68 351.8 361.48 393.24 290.253C397.413 282.827 402.413 275.853 405.947 268.08C399 271.12 392.587 275.2 386.013 278.96C309.587 323 234.613 369.52 160.867 417.907C156.88 420.4 153.213 423.707 148.6 425C144.2 422.453 140.56 418.813 136.573 415.707C97.1066 384.107 56.2266 354.307 14.56 325.693C10.4666 322.907 6.41331 320.067 2.45331 317.08C10.8533 310.893 20.2666 306.293 29.12 300.787C147.16 231.213 268.027 166.16 393.08 110.04C398.32 107.613 403.667 104.747 409.613 104.787C497.253 104.88 584.893 108.267 672.293 114.707C681.08 115.2 689.84 116.533 698.653 116.107C696.147 114.573 693.587 113.133 690.893 111.973C639.107 90.8133 586.547 71.56 533.48 53.88C541.533 50.1333 550.147 47.8533 558.493 44.8933C603.493 29.64 648.56 14.52 694.44 2.11999ZM699.307 118.787C624.253 151.947 550.693 188.467 478.453 227.36C455.013 240.253 431.333 252.773 408.333 266.44C414.053 270.213 420 273.613 425.893 277.107C475.88 307.027 524.813 338.667 573.093 371.24C616.96 400.653 659.933 431.373 703.053 461.853C710.133 457.333 716.747 452.16 723.613 447.333C807.347 387.453 892.48 329.373 980.933 276.627C986.6 273.293 992.467 270.24 997.68 266.173C904.667 209.773 807.28 160.64 706.96 118.64C704.493 117.453 701.72 117.547 699.307 118.787Z" fill="white"/>
<path d="M672.96 171.48C706.093 168.427 739.84 170.493 772.08 178.947C792.76 184.333 812.84 192.52 830.693 204.347C843.307 212.787 854.813 223.293 862.6 236.427C870.653 249.907 874.253 266.52 870.24 281.92C865.853 300.12 853.267 315.133 838.827 326.48C816.72 343.56 790.12 353.92 763.027 359.96C718.48 369.76 671.48 368.787 627.44 356.84C600.693 349.427 574.613 337.307 554.307 318.013C540.747 304.507 530.32 286.24 531.187 266.573C531.68 245.693 544.173 227.133 559.613 213.947C591.253 187.48 632.587 175.747 672.96 171.48Z" fill="white"/>
<path d="M0.746671 993.16C18.3733 992.293 36.0267 993.053 53.6667 992.787C66.5333 992.587 79.8933 992.493 91.9333 997.72C102.387 1002.09 111.333 1010.81 114.493 1021.88C118.987 1036.8 117.147 1054.45 106.867 1066.63C101.453 1073.2 93.3867 1076.52 85.6933 1079.61C89.9067 1081.95 94.6267 1084 97.4667 1088.09C101.533 1093.96 103.84 1100.81 106.067 1107.55C112.013 1126.76 118.173 1145.89 124.2 1165.08C110.053 1165.23 95.9067 1165.15 81.76 1165.13C76.7333 1149.49 72.64 1133.57 67.92 1117.85C65.76 1111.21 63.8933 1103.89 58.52 1099.05C53.84 1095.08 47.32 1095.61 41.5867 1095.59C41.2667 1118.76 41.6133 1141.95 41.4533 1165.12C27.88 1165.13 14.3067 1165.27 0.733337 1165.04C0.786671 1107.75 0.773338 1050.45 0.746671 993.16ZM40.08 1022.25C39.8133 1036.97 39.6933 1051.72 40.1467 1066.44C49.0533 1066.35 58.8533 1067.39 66.7467 1062.41C77.6667 1055.17 79.4267 1037.8 70.8 1028.21C62.6533 1020.41 50.4 1021.89 40.08 1022.25Z" fill="white"/>
<path d="M441.893 993.027C453.92 992.6 465.973 992.653 478 993C478.293 1003.64 478.533 1014.29 477.853 1024.92C465.88 1024.93 453.92 1024.91 441.947 1024.93C441.76 1014.29 441.813 1003.67 441.893 993.027Z" fill="white"/>
<path d="M733.333 993C765.107 992.667 796.893 992.653 828.667 993C829.027 1002.89 829.053 1012.8 828.64 1022.71C809.88 1023.23 791.107 1022.69 772.333 1022.93C771.96 1036.19 772.067 1049.47 772.267 1062.73C790.373 1063.13 808.493 1062.6 826.6 1062.96C826.587 1072.99 826.587 1083.01 826.6 1093.04C808.493 1093.4 790.373 1092.87 772.267 1093.27C771.92 1117.21 772.293 1141.17 772.12 1165.12C759.2 1165.17 746.28 1165.19 733.36 1165.11C732.8 1144.31 733.293 1123.48 733.133 1102.67C733.28 1066.11 732.84 1029.55 733.333 993Z" fill="white"/>
<path d="M1016.56 993.027C1028.59 992.6 1040.63 992.653 1052.67 993C1053.15 1032.21 1052.72 1071.44 1052.87 1110.67C1053.04 1128.8 1052.41 1146.96 1053.43 1165.08C1041.97 1165.19 1030.52 1165.25 1019.07 1165.04C1018.48 1159.31 1018.01 1153.56 1017.59 1147.83C1013.77 1152.84 1010.16 1158.28 1004.76 1161.75C996.573 1167.08 986.173 1167.89 976.76 1166.11C965.44 1163.77 956.573 1154.91 951.533 1144.85C944.813 1131.45 942.827 1116.19 943.12 1101.35C943.013 1086.05 945.76 1069.89 955.093 1057.39C965.413 1043.44 985.96 1039.93 1001.32 1046.92C1007.91 1049.8 1012.15 1055.84 1016.33 1061.41C1016.83 1038.63 1016.32 1015.83 1016.56 993.027ZM991.56 1069.8C985.573 1072.65 983.107 1079.49 982.013 1085.61C980.573 1094.76 980.933 1104.07 981.093 1113.29C981.427 1120.75 982.507 1128.59 986.76 1134.92C990.84 1141.12 1000.56 1142.69 1006.29 1137.91C1010.44 1134.52 1012.75 1129.45 1014.07 1124.39C1017.03 1112.56 1016.97 1100.15 1015.01 1088.17C1014.05 1082.75 1012.4 1077.17 1008.75 1072.92C1004.57 1068.11 997.187 1067.53 991.56 1069.8Z" fill="white"/>
<path d="M1364.31 993.027C1376.32 992.627 1388.35 992.627 1400.37 993.027C1400.84 1025.12 1400.43 1057.23 1400.57 1089.33C1400.43 1114.59 1400.83 1139.85 1400.39 1165.11C1388.35 1165.2 1376.31 1165.19 1364.28 1165.11C1363.84 1126.52 1364.23 1087.92 1364.09 1049.33C1364.24 1030.56 1363.81 1011.79 1364.31 993.027Z" fill="white"/>
<path d="M504.72 1020.55C516.48 1016.99 528.16 1013.13 539.907 1009.52C540.067 1021.48 539.627 1033.45 540.08 1045.41C547.813 1045.56 555.547 1045.52 563.28 1045.53C563.733 1053.92 563.72 1062.33 563.293 1070.72C555.573 1070.96 547.853 1070.91 540.133 1070.91C539.573 1088.15 540.08 1105.41 539.853 1122.67C540.04 1128.35 539.88 1135.6 545.307 1139.07C551.147 1142.25 557.987 1139.8 564.107 1138.8C564.227 1147.65 564.187 1156.51 564.133 1165.36C554.52 1167.27 544.667 1167.09 534.92 1166.79C526 1166.44 516.8 1163.08 510.987 1156.07C505.493 1149.37 503.733 1140.51 503.48 1132.07C503.16 1111.69 503.827 1091.31 503.187 1070.95C494.84 1070.81 486.493 1070.79 478.16 1071.03C478.093 1102.39 478.507 1133.76 477.973 1165.11C465.933 1165.2 453.907 1165.17 441.88 1165.12C441.84 1125.27 441.84 1085.4 441.88 1045.55C462.72 1045.37 483.573 1045.75 504.413 1045.4C504.6 1037.11 504.387 1028.83 504.72 1020.55Z" fill="white"/>
<path d="M151.4 1049.67C163.187 1043.07 177.44 1042.21 190.507 1044.75C202.08 1046.99 212.747 1054.03 218.733 1064.28C227.907 1079.32 228.733 1097.57 228.093 1114.72C204.613 1115.28 181.107 1114.53 157.627 1115.07C158.053 1122.87 160.773 1130.95 167.227 1135.83C175.28 1142.53 186.387 1142.28 196.28 1141.95C204.76 1141.83 213.107 1140.16 221.213 1137.77C221.347 1146.95 221.787 1156.11 221.653 1165.28C211.96 1166.91 202.107 1166.92 192.307 1167.16C178.32 1167.15 163.64 1166.68 150.987 1159.97C138.053 1153.44 129.12 1140.61 125.72 1126.71C121.627 1110.13 122.107 1092.11 128.653 1076.21C133.133 1065.27 140.933 1055.41 151.4 1049.67ZM163.72 1071.4C158.373 1077.91 158.013 1086.77 157.76 1094.8C170.267 1095.36 182.787 1095.17 195.293 1094.92C194.907 1086.81 194.387 1077.92 188.96 1071.39C182.96 1063.65 169.707 1063.67 163.72 1071.4Z" fill="white"/>
<path d="M254.533 1058.21C264.587 1048.56 278.627 1044 292.36 1043.53C303 1043.23 313.627 1044.19 324.187 1045.4C324.28 1054.57 323.653 1063.75 322.56 1072.87C312.147 1072.03 301.24 1069.96 291.093 1073.44C280.813 1077.28 275.587 1088.4 274.6 1098.73C273.133 1111.05 274.56 1125.72 285.133 1133.87C296.307 1142.61 311.44 1139.71 324.493 1138.57C325.453 1147.45 325.493 1156.41 325.4 1165.35C312.747 1167.95 299.747 1167.4 286.933 1166.75C275.147 1166.12 263.293 1161.92 254.667 1153.67C241.453 1141.49 236.08 1122.88 236.36 1105.33C236.12 1088.16 241.76 1070.16 254.533 1058.21Z" fill="white"/>
<path d="M337.72 1065.39C345.36 1053.61 358.413 1045.57 372.347 1043.96C382.08 1042.79 392.213 1043.55 401.44 1047C411.72 1050.85 420.053 1059.08 424.6 1069.01C431.213 1083.21 432.16 1099.28 431.307 1114.71C407.933 1115.23 384.533 1114.67 361.147 1114.95C361.253 1121.41 363.04 1127.99 367.4 1132.92C371.987 1138.15 378.787 1141.12 385.653 1141.73C398.653 1142.72 411.867 1141.71 424.347 1137.84C424.8 1147.01 425.173 1156.19 424.773 1165.37C410.493 1167.31 396 1167.39 381.627 1166.83C367.933 1166.36 353.893 1162.03 343.76 1152.51C333.92 1143.44 328.853 1130.29 327.227 1117.23C324.88 1099.49 327.52 1080.43 337.72 1065.39ZM366.12 1072.49C361.627 1079.04 361.08 1087.24 361.147 1094.95C373.507 1095.21 385.88 1095.23 398.24 1094.93C398.347 1086.93 397.6 1078.35 392.667 1071.71C386.44 1063.4 371.747 1063.6 366.12 1072.49Z" fill="white"/>
<path d="M582.96 1045.63C601.853 1044.6 620.947 1041.81 639.787 1044.91C649.747 1046.69 660.213 1050.84 666.04 1059.57C671.227 1067.11 672.467 1076.45 672.773 1085.39C673.267 1111.95 672.227 1138.53 673.427 1165.09C662.48 1165.19 651.547 1165.24 640.613 1165.07C640.12 1160.6 639.613 1156.15 639.013 1151.71C634.773 1155.55 630.707 1159.77 625.56 1162.43C616.107 1167.27 604.867 1168.08 594.627 1165.64C582.773 1162.73 572.933 1152.81 570.373 1140.84C567.84 1129.45 569.213 1116.41 576.88 1107.21C583.893 1098.79 594.56 1094.51 605.067 1092.44C616.36 1089.99 627.973 1090.52 639.453 1090.4C639.44 1084.6 638.693 1078.27 634.32 1074C628.773 1067.99 619.853 1068.49 612.373 1068.76C602.16 1068.99 592.32 1071.96 582.893 1075.68C582.68 1065.67 582.587 1055.64 582.96 1045.63ZM609.853 1113.49C601.747 1118.83 600.08 1131.15 605.493 1138.89C613.067 1147.55 628.52 1144.71 634.413 1135.44C639.933 1127.31 639.773 1117.04 639.28 1107.64C629.293 1107.48 618.44 1107.77 609.853 1113.49Z" fill="white"/>
<path d="M842.227 1064.59C850.173 1052.85 863.547 1045.08 877.64 1043.8C888.6 1042.79 900.16 1043.92 910.027 1049.11C918.533 1053.56 925.16 1061.17 929 1069.92C935.267 1083.91 936.107 1099.6 935.32 1114.71C911.773 1115.2 888.2 1114.73 864.653 1114.91C865.613 1121.59 867.107 1128.65 872.027 1133.64C876.627 1138.43 883.093 1141.15 889.653 1141.73C902.653 1142.73 915.853 1141.69 928.36 1137.85C928.773 1147.01 929.16 1156.19 928.76 1165.37C914.027 1167.35 899.093 1167.43 884.267 1166.75C870.12 1166.07 855.667 1161.04 845.787 1150.57C836.867 1141.25 832.453 1128.52 831.08 1115.89C828.96 1098.25 831.867 1079.36 842.227 1064.59ZM870.667 1071.71C865.707 1078.35 865.013 1086.93 865.133 1094.95C877.493 1095.21 889.88 1095.21 902.24 1094.93C902.307 1086.93 901.6 1078.35 896.653 1071.72C890.653 1063.61 876.64 1063.51 870.667 1071.71Z" fill="white"/>
<path d="M1076.16 1061.24C1083.84 1051.93 1095 1045.52 1107.01 1044.05C1119.95 1042.39 1133.97 1043.93 1145.03 1051.35C1154.89 1058.01 1161.2 1068.92 1163.96 1080.36C1167 1091.53 1167.07 1103.21 1166.76 1114.72C1143.24 1115.21 1119.69 1114.65 1096.17 1114.97C1096.67 1122.8 1099.32 1130.96 1105.84 1135.84C1113.89 1142.63 1125.04 1142.27 1134.95 1141.95C1143.41 1141.84 1151.77 1140.16 1159.88 1137.77C1160 1146.95 1160.29 1156.12 1160.2 1165.31C1145.67 1167.36 1130.89 1167.45 1116.27 1166.73C1102.4 1166.03 1088.05 1161.65 1078.09 1151.59C1066.35 1139.93 1061.76 1122.84 1061.8 1106.68C1061.41 1090.55 1065.72 1073.8 1076.16 1061.24ZM1102.39 1071.39C1097.07 1077.96 1096.59 1086.83 1096.09 1094.91C1108.69 1095.23 1121.29 1095.27 1133.89 1094.88C1133.28 1086.81 1132.92 1077.95 1127.61 1071.39C1121.61 1063.71 1108.32 1063.53 1102.39 1071.39Z" fill="white"/>
<path d="M1257.88 1045.6C1271.12 1044.71 1284.36 1043.6 1297.64 1043.45C1311.09 1043.83 1325.95 1045.2 1336.51 1054.49C1345.52 1062.45 1347.61 1075.13 1347.83 1086.56C1348.16 1112.75 1347.51 1138.95 1348.25 1165.13C1337.33 1165.16 1326.41 1165.24 1315.49 1165.05C1315.09 1160.21 1314.61 1155.39 1314.12 1150.56C1309.03 1156.97 1302.57 1162.57 1294.55 1164.87C1281.29 1168.99 1265.21 1167.4 1254.81 1157.52C1245.19 1148.64 1242.69 1134.27 1245.03 1121.84C1246.85 1111.83 1253.6 1103.05 1262.65 1098.47C1278.41 1089.92 1296.85 1090.32 1314.25 1090.41C1314.47 1083.95 1313.04 1076.87 1307.79 1072.59C1301.99 1067.93 1294.01 1068.57 1287.04 1068.79C1276.92 1069.08 1267.15 1071.97 1257.81 1075.71C1257.87 1065.67 1257.79 1055.63 1257.88 1045.6ZM1286.17 1112.51C1276.87 1117.47 1274.48 1131.33 1280.89 1139.44C1288.71 1147.24 1303.41 1144.53 1309.24 1135.52C1314.77 1127.44 1314.72 1117.27 1314.56 1107.88C1304.96 1107.19 1294.8 1107.85 1286.17 1112.51Z" fill="white"/>
<path d="M1175.15 1045.55C1186.11 1045.47 1197.05 1045.49 1208.01 1045.53C1208.31 1051.93 1208.72 1058.33 1209.73 1064.68C1214.39 1059.41 1217.65 1052.57 1224.11 1049.17C1231.39 1045.01 1240.03 1045.39 1248.13 1045.49C1248.19 1055.59 1248.19 1065.69 1248.13 1075.79C1239.32 1076.13 1229.21 1074.17 1221.76 1080.08C1213.87 1086.36 1212.88 1097.24 1212.31 1106.6C1211.87 1126.11 1212.32 1145.61 1212.12 1165.12C1200.09 1165.17 1188.05 1165.19 1176.03 1165.12C1175.12 1125.27 1176.71 1085.37 1175.15 1045.55Z" fill="white"/>
</svg>
